# xmcd
#
# Track frame offsets:
# 150
# 16166
# 30791
# 45534
# 59953
# 78185
# 96613
# 116054
# 130977
# 148004
# 163603
# 181061
# 195290
# 209306
# 225994
# 241826
# 260379
# 276458
# 294243
# 311503
# 329145
#
# Disc length: 4607 seconds
#
#
# Revision: 0
# Processed by: cddbd v1.5PL3 Copyright (c) Steve Scherf et al.
# Submitted via: FreeRIP 2.53 
#
DISCID=2811fd15
DTITLE=Wariner, Steve - Ultimate Collection
DYEAR=1900
DGENRE=
TTITLE0=All Roads Lead To You
TTITLE1=Midnight Fire
TTITLE2=Lonely Women Make Good Lovers
TTITLE3=What I Didn't Do
TTITLE4=Some Fools Never Learn
TTITLE5=You Can Dream Of Me
TTITLE6=Starting Over Again
TTITLE7=Life's Highway
TTITLE8=Small Town Girl
TTITLE9=That's How You Know When Love's Right
TTITLE10=The Weekend
TTITLE11=The Hand That Rocks The Cradle
TTITLE12=Lynda
TTITLE13=Baby I'm Yours
TTITLE14=I Should Be With You
TTITLE15=Hold On (A Little Longer)
TTITLE16=Where Did I Go Wrong
TTITLE17=I Got Dreams
TTITLE18=When I Could Go Home To You
TTITLE19=Leave Him Out Of This
TTITLE20=The Tips Of My Fingers
EXTD=
EXTT0=
EXTT1=
EXTT2=
EXTT3=
EXTT4=
EXTT5=
EXTT6=
EXTT7=
EXTT8=
EXTT9=
EXTT10=
EXTT11=
EXTT12=
EXTT13=
EXTT14=
EXTT15=
EXTT16=
EXTT17=
EXTT18=
EXTT19=
EXTT20=
PLAYORDER=
